<svg xmlns="http://www.w3.org/2000/svg" version="1.1" xmlns:xlink="http://www.w3.org/1999/xlink" xmlns:svgjs="http://svgjs.com/svgjs" width="1440" height="560" preserveAspectRatio="none" viewBox="0 0 1440 560"><g mask="url(&quot;#SvgjsMask1000&quot;)" fill="none"><rect width="1440" height="560" x="0" y="0" fill="#0e2a47"></rect><path d="M50.55 -60.66L115.5 -23.16L115.5 51.84L50.55 89.34L-14.4 51.84L-14.4 -23.16zM50.55 164.34L115.5 201.84L115.5 276.84L50.55 314.34L-14.4 276.84L-14.4 201.84zM50.55 389.34L115.5 426.84L115.5 501.84L50.55 539.34L-14.4 501.84L-14.4 426.84zM180.46 -60.66L245.41 -23.16L245.41 51.84L180.46 89.34L115.5 51.84L115.5 -23.16zM245.41 276.84L310.37 314.34L310.37 389.34L245.41 426.84L180.46 389.34L180.46 314.34zM375.32 51.84L440.27 89.34L440.27 164.34L375.32 201.84L310.37 164.34L310.37 89.34zM440.27 -60.66L505.23 -23.16L505.23 51.84L440.27 89.34L375.32 51.84L375.32 -23.16zM440.27 389.34L505.23 426.84L505.23 501.84L440.27 539.34L375.32 501.84L375.32 426.84zM635.13 51.84L700.09 89.34L700.09 164.34L635.13 201.84L570.18 164.34L570.18 89.34zM570.18 164.34L635.13 201.84L635.13 276.84L570.18 314.34L505.23 276.84L505.23 201.84zM635.13 276.84L700.09 314.34L700.09 389.34L635.13 426.84L570.18 389.34L570.18 314.34zM570.18 389.34L635.13 426.84L635.13 501.84L570.18 539.34L505.23 501.84L505.23 426.84zM635.13 501.84L700.09 539.34L700.09 614.34L635.13 651.84L570.18 614.34L570.18 539.34zM700.09 164.34L765.04 201.84L765.04 276.84L700.09 314.34L635.13 276.84L635.13 201.84zM700.09 389.34L765.04 426.84L765.04 501.84L700.09 539.34L635.13 501.84L635.13 426.84zM829.99 389.34L894.95 426.84L894.95 501.84L829.99 539.34L765.04 501.84L765.04 426.84zM1024.86 501.84L1089.81 539.34L1089.81 614.34L1024.86 651.84L959.9 614.34L959.9 539.34zM1089.81 389.34L1154.76 426.84L1154.76 501.84L1089.81 539.34L1024.86 501.84L1024.86 426.84zM1284.67 51.84L1349.62 89.34L1349.62 164.34L1284.67 201.84L1219.72 164.34L1219.72 89.34zM1349.63 389.34L1414.58 426.84L1414.58 501.84L1349.63 539.34L1284.67 501.84L1284.67 426.84zM1414.58 501.84L1479.53 539.34L1479.53 614.34L1414.58 651.84L1349.63 614.34L1349.63 539.34zM1479.53 -60.66L1544.49 -23.16L1544.49 51.84L1479.53 89.34L1414.58 51.84L1414.58 -23.16zM1544.49 276.84L1609.44 314.34L1609.44 389.34L1544.49 426.84L1479.53 389.34L1479.53 314.34zM1544.49 501.84L1609.44 539.34L1609.44 614.34L1544.49 651.84L1479.53 614.34L1479.53 539.34z" stroke="#03305d" stroke-width="2"></path><path d="M43.05 -60.66 a7.5 7.5 0 1 0 15 0 a7.5 7.5 0 1 0 -15 0zM108 -23.16 a7.5 7.5 0 1 0 15 0 a7.5 7.5 0 1 0 -15 0zM108 51.84 a7.5 7.5 0 1 0 15 0 a7.5 7.5 0 1 0 -15 0zM43.05 89.34 a7.5 7.5 0 1 0 15 0 a7.5 7.5 0 1 0 -15 0zM-21.9 51.84 a7.5 7.5 0 1 0 15 0 a7.5 7.5 0 1 0 -15 0zM-21.9 -23.16 a7.5 7.5 0 1 0 15 0 a7.5 7.5 0 1 0 -15 0zM43.05 164.34 a7.5 7.5 0 1 0 15 0 a7.5 7.5 0 1 0 -15 0zM108 201.84 a7.5 7.5 0 1 0 15 0 a7.5 7.5 0 1 0 -15 0zM108 276.84 a7.5 7.5 0 1 0 15 0 a7.5 7.5 0 1 0 -15 0zM43.05 314.34 a7.5 7.5 0 1 0 15 0 a7.5 7.5 0 1 0 -15 0zM-21.9 276.84 a7.5 7.5 0 1 0 15 0 a7.5 7.5 0 1 0 -15 0zM-21.9 201.84 a7.5 7.5 0 1 0 15 0 a7.5 7.5 0 1 0 -15 0zM43.05 389.34 a7.5 7.5 0 1 0 15 0 a7.5 7.5 0 1 0 -15 0zM108 426.84 a7.5 7.5 0 1 0 15 0 a7.5 7.5 0 1 0 -15 0zM108 501.84 a7.5 7.5 0 1 0 15 0 a7.5 7.5 0 1 0 -15 0zM43.05 539.34 a7.5 7.5 0 1 0 15 0 a7.5 7.5 0 1 0 -15 0zM-21.9 501.84 a7.5 7.5 0 1 0 15 0 a7.5 7.5 0 1 0 -15 0zM-21.9 426.84 a7.5 7.5 0 1 0 15 0 a7.5 7.5 0 1 0 -15 0zM172.96 -60.66 a7.5 7.5 0 1 0 15 0 a7.5 7.5 0 1 0 -15 0zM237.91 -23.16 a7.5 7.5 0 1 0 15 0 a7.5 7.5 0 1 0 -15 0zM237.91 51.84 a7.5 7.5 0 1 0 15 0 a7.5 7.5 0 1 0 -15 0zM172.96 89.34 a7.5 7.5 0 1 0 15 0 a7.5 7.5 0 1 0 -15 0zM237.91 276.84 a7.5 7.5 0 1 0 15 0 a7.5 7.5 0 1 0 -15 0zM302.87 314.34 a7.5 7.5 0 1 0 15 0 a7.5 7.5 0 1 0 -15 0zM302.87 389.34 a7.5 7.5 0 1 0 15 0 a7.5 7.5 0 1 0 -15 0zM237.91 426.84 a7.5 7.5 0 1 0 15 0 a7.5 7.5 0 1 0 -15 0zM172.96 389.34 a7.5 7.5 0 1 0 15 0 a7.5 7.5 0 1 0 -15 0zM172.96 314.34 a7.5 7.5 0 1 0 15 0 a7.5 7.5 0 1 0 -15 0zM367.82 51.84 a7.5 7.5 0 1 0 15 0 a7.5 7.5 0 1 0 -15 0zM432.77 89.34 a7.5 7.5 0 1 0 15 0 a7.5 7.5 0 1 0 -15 0zM432.77 164.34 a7.5 7.5 0 1 0 15 0 a7.5 7.5 0 1 0 -15 0zM367.82 201.84 a7.5 7.5 0 1 0 15 0 a7.5 7.5 0 1 0 -15 0zM302.87 164.34 a7.5 7.5 0 1 0 15 0 a7.5 7.5 0 1 0 -15 0zM302.87 89.34 a7.5 7.5 0 1 0 15 0 a7.5 7.5 0 1 0 -15 0zM432.77 -60.66 a7.5 7.5 0 1 0 15 0 a7.5 7.5 0 1 0 -15 0zM497.73 -23.16 a7.5 7.5 0 1 0 15 0 a7.5 7.5 0 1 0 -15 0zM497.73 51.84 a7.5 7.5 0 1 0 15 0 a7.5 7.5 0 1 0 -15 0zM367.82 -23.16 a7.5 7.5 0 1 0 15 0 a7.5 7.5 0 1 0 -15 0zM432.77 389.34 a7.5 7.5 0 1 0 15 0 a7.5 7.5 0 1 0 -15 0zM497.73 426.84 a7.5 7.5 0 1 0 15 0 a7.5 7.5 0 1 0 -15 0zM497.73 501.84 a7.5 7.5 0 1 0 15 0 a7.5 7.5 0 1 0 -15 0zM432.77 539.34 a7.5 7.5 0 1 0 15 0 a7.5 7.5 0 1 0 -15 0zM367.82 501.84 a7.5 7.5 0 1 0 15 0 a7.5 7.5 0 1 0 -15 0zM367.82 426.84 a7.5 7.5 0 1 0 15 0 a7.5 7.5 0 1 0 -15 0zM627.63 51.84 a7.5 7.5 0 1 0 15 0 a7.5 7.5 0 1 0 -15 0zM692.59 89.34 a7.5 7.5 0 1 0 15 0 a7.5 7.5 0 1 0 -15 0zM692.59 164.34 a7.5 7.5 0 1 0 15 0 a7.5 7.5 0 1 0 -15 0zM627.63 201.84 a7.5 7.5 0 1 0 15 0 a7.5 7.5 0 1 0 -15 0zM562.68 164.34 a7.5 7.5 0 1 0 15 0 a7.5 7.5 0 1 0 -15 0zM562.68 89.34 a7.5 7.5 0 1 0 15 0 a7.5 7.5 0 1 0 -15 0zM627.63 276.84 a7.5 7.5 0 1 0 15 0 a7.5 7.5 0 1 0 -15 0zM562.68 314.34 a7.5 7.5 0 1 0 15 0 a7.5 7.5 0 1 0 -15 0zM497.73 276.84 a7.5 7.5 0 1 0 15 0 a7.5 7.5 0 1 0 -15 0zM497.73 201.84 a7.5 7.5 0 1 0 15 0 a7.5 7.5 0 1 0 -15 0zM692.59 314.34 a7.5 7.5 0 1 0 15 0 a7.5 7.5 0 1 0 -15 0zM692.59 389.34 a7.5 7.5 0 1 0 15 0 a7.5 7.5 0 1 0 -15 0zM627.63 426.84 a7.5 7.5 0 1 0 15 0 a7.5 7.5 0 1 0 -15 0zM562.68 389.34 a7.5 7.5 0 1 0 15 0 a7.5 7.5 0 1 0 -15 0zM627.63 501.84 a7.5 7.5 0 1 0 15 0 a7.5 7.5 0 1 0 -15 0zM562.68 539.34 a7.5 7.5 0 1 0 15 0 a7.5 7.5 0 1 0 -15 0zM692.59 539.34 a7.5 7.5 0 1 0 15 0 a7.5 7.5 0 1 0 -15 0zM692.59 614.34 a7.5 7.5 0 1 0 15 0 a7.5 7.5 0 1 0 -15 0zM627.63 651.84 a7.5 7.5 0 1 0 15 0 a7.5 7.5 0 1 0 -15 0zM562.68 614.34 a7.5 7.5 0 1 0 15 0 a7.5 7.5 0 1 0 -15 0zM757.54 201.84 a7.5 7.5 0 1 0 15 0 a7.5 7.5 0 1 0 -15 0zM757.54 276.84 a7.5 7.5 0 1 0 15 0 a7.5 7.5 0 1 0 -15 0zM757.54 426.84 a7.5 7.5 0 1 0 15 0 a7.5 7.5 0 1 0 -15 0zM757.54 501.84 a7.5 7.5 0 1 0 15 0 a7.5 7.5 0 1 0 -15 0zM822.49 389.34 a7.5 7.5 0 1 0 15 0 a7.5 7.5 0 1 0 -15 0zM887.45 426.84 a7.5 7.5 0 1 0 15 0 a7.5 7.5 0 1 0 -15 0zM887.45 501.84 a7.5 7.5 0 1 0 15 0 a7.5 7.5 0 1 0 -15 0zM822.49 539.34 a7.5 7.5 0 1 0 15 0 a7.5 7.5 0 1 0 -15 0zM1017.36 501.84 a7.5 7.5 0 1 0 15 0 a7.5 7.5 0 1 0 -15 0zM1082.31 539.34 a7.5 7.5 0 1 0 15 0 a7.5 7.5 0 1 0 -15 0zM1082.31 614.34 a7.5 7.5 0 1 0 15 0 a7.5 7.5 0 1 0 -15 0zM1017.36 651.84 a7.5 7.5 0 1 0 15 0 a7.5 7.5 0 1 0 -15 0zM952.4 614.34 a7.5 7.5 0 1 0 15 0 a7.5 7.5 0 1 0 -15 0zM952.4 539.34 a7.5 7.5 0 1 0 15 0 a7.5 7.5 0 1 0 -15 0zM1082.31 389.34 a7.5 7.5 0 1 0 15 0 a7.5 7.5 0 1 0 -15 0zM1147.26 426.84 a7.5 7.5 0 1 0 15 0 a7.5 7.5 0 1 0 -15 0zM1147.26 501.84 a7.5 7.5 0 1 0 15 0 a7.5 7.5 0 1 0 -15 0zM1017.36 426.84 a7.5 7.5 0 1 0 15 0 a7.5 7.5 0 1 0 -15 0zM1277.17 51.84 a7.5 7.5 0 1 0 15 0 a7.5 7.5 0 1 0 -15 0zM1342.12 89.34 a7.5 7.5 0 1 0 15 0 a7.5 7.5 0 1 0 -15 0zM1342.12 164.34 a7.5 7.5 0 1 0 15 0 a7.5 7.5 0 1 0 -15 0zM1277.17 201.84 a7.5 7.5 0 1 0 15 0 a7.5 7.5 0 1 0 -15 0zM1212.22 164.34 a7.5 7.5 0 1 0 15 0 a7.5 7.5 0 1 0 -15 0zM1212.22 89.34 a7.5 7.5 0 1 0 15 0 a7.5 7.5 0 1 0 -15 0zM1342.13 389.34 a7.5 7.5 0 1 0 15 0 a7.5 7.5 0 1 0 -15 0zM1407.08 426.84 a7.5 7.5 0 1 0 15 0 a7.5 7.5 0 1 0 -15 0zM1407.08 501.84 a7.5 7.5 0 1 0 15 0 a7.5 7.5 0 1 0 -15 0zM1342.13 539.34 a7.5 7.5 0 1 0 15 0 a7.5 7.5 0 1 0 -15 0zM1277.17 501.84 a7.5 7.5 0 1 0 15 0 a7.5 7.5 0 1 0 -15 0zM1277.17 426.84 a7.5 7.5 0 1 0 15 0 a7.5 7.5 0 1 0 -15 0zM1472.03 539.34 a7.5 7.5 0 1 0 15 0 a7.5 7.5 0 1 0 -15 0zM1472.03 614.34 a7.5 7.5 0 1 0 15 0 a7.5 7.5 0 1 0 -15 0zM1407.08 651.84 a7.5 7.5 0 1 0 15 0 a7.5 7.5 0 1 0 -15 0zM1342.13 614.34 a7.5 7.5 0 1 0 15 0 a7.5 7.5 0 1 0 -15 0zM1472.03 -60.66 a7.5 7.5 0 1 0 15 0 a7.5 7.5 0 1 0 -15 0zM1536.99 -23.16 a7.5 7.5 0 1 0 15 0 a7.5 7.5 0 1 0 -15 0zM1536.99 51.84 a7.5 7.5 0 1 0 15 0 a7.5 7.5 0 1 0 -15 0zM1472.03 89.34 a7.5 7.5 0 1 0 15 0 a7.5 7.5 0 1 0 -15 0zM1407.08 51.84 a7.5 7.5 0 1 0 15 0 a7.5 7.5 0 1 0 -15 0zM1407.08 -23.16 a7.5 7.5 0 1 0 15 0 a7.5 7.5 0 1 0 -15 0zM1536.99 276.84 a7.5 7.5 0 1 0 15 0 a7.5 7.5 0 1 0 -15 0zM1601.94 314.34 a7.5 7.5 0 1 0 15 0 a7.5 7.5 0 1 0 -15 0zM1601.94 389.34 a7.5 7.5 0 1 0 15 0 a7.5 7.5 0 1 0 -15 0zM1536.99 426.84 a7.5 7.5 0 1 0 15 0 a7.5 7.5 0 1 0 -15 0zM1472.03 389.34 a7.5 7.5 0 1 0 15 0 a7.5 7.5 0 1 0 -15 0zM1472.03 314.34 a7.5 7.5 0 1 0 15 0 a7.5 7.5 0 1 0 -15 0zM1536.99 501.84 a7.5 7.5 0 1 0 15 0 a7.5 7.5 0 1 0 -15 0zM1601.94 539.34 a7.5 7.5 0 1 0 15 0 a7.5 7.5 0 1 0 -15 0zM1601.94 614.34 a7.5 7.5 0 1 0 15 0 a7.5 7.5 0 1 0 -15 0zM1536.99 651.84 a7.5 7.5 0 1 0 15 0 a7.5 7.5 0 1 0 -15 0z" fill="#03305d"></path><path d="M46.55 -21.28L89.85 3.72L89.85 53.72L46.55 78.72L3.25 53.72L3.25 3.72zM89.85 53.72L133.16 78.72L133.16 128.72L89.85 153.72L46.55 128.72L46.55 78.72zM46.55 128.72L89.85 153.72L89.85 203.72L46.55 228.72L3.25 203.72L3.25 153.72zM46.55 278.72L89.85 303.72L89.85 353.72L46.55 378.72L3.25 353.72L3.25 303.72zM89.85 353.72L133.16 378.72L133.16 428.72L89.85 453.72L46.55 428.72L46.55 378.72zM46.55 428.72L89.85 453.72L89.85 503.72L46.55 528.72L3.25 503.72L3.25 453.72zM89.85 503.72L133.16 528.72L133.16 578.72L89.85 603.72L46.55 578.72L46.55 528.72zM219.76 -21.28L263.06 3.72L263.06 53.72L219.76 78.72L176.46 53.72L176.46 3.72zM263.06 203.72L306.37 228.72L306.37 278.72L263.06 303.72L219.76 278.72L219.76 228.72zM306.37 -21.28L349.67 3.72L349.67 53.72L306.37 78.72L263.06 53.72L263.06 3.72zM306.37 128.72L349.67 153.72L349.67 203.72L306.37 228.72L263.06 203.72L263.06 153.72zM349.67 353.72L392.97 378.72L392.97 428.72L349.67 453.72L306.37 428.72L306.37 378.72zM436.27 353.72L479.58 378.72L479.58 428.72L436.27 453.72L392.97 428.72L392.97 378.72zM392.97 428.72L436.27 453.72L436.27 503.72L392.97 528.72L349.67 503.72L349.67 453.72zM522.88 53.72L566.18 78.72L566.18 128.72L522.88 153.72L479.58 128.72L479.58 78.72zM479.58 128.72L522.88 153.72L522.88 203.72L479.58 228.72L436.27 203.72L436.27 153.72zM522.88 203.72L566.18 228.72L566.18 278.72L522.88 303.72L479.58 278.72L479.58 228.72zM609.48 53.72L652.78 78.72L652.78 128.72L609.48 153.72L566.18 128.72L566.18 78.72zM566.18 128.72L609.48 153.72L609.48 203.72L566.18 228.72L522.88 203.72L522.88 153.72zM566.18 428.72L609.48 453.72L609.48 503.72L566.18 528.72L522.88 503.72L522.88 453.72zM696.09 353.72L739.39 378.72L739.39 428.72L696.09 453.72L652.78 428.72L652.78 378.72zM782.69 53.72L826 78.72L826 128.72L782.69 153.72L739.39 128.72L739.39 78.72zM739.39 128.72L782.69 153.72L782.69 203.72L739.39 228.72L696.09 203.72L696.09 153.72zM739.39 278.72L782.69 303.72L782.69 353.72L739.39 378.72L696.09 353.72L696.09 303.72zM782.69 353.72L826 378.72L826 428.72L782.69 453.72L739.39 428.72L739.39 378.72zM869.3 203.72L912.6 228.72L912.6 278.72L869.3 303.72L826 278.72L826 228.72zM826 278.72L869.3 303.72L869.3 353.72L826 378.72L782.69 353.72L782.69 303.72zM912.6 -21.28L955.9 3.72L955.9 53.72L912.6 78.72L869.3 53.72L869.3 3.72zM955.9 53.72L999.21 78.72L999.21 128.72L955.9 153.72L912.6 128.72L912.6 78.72zM1042.51 203.72L1085.81 228.72L1085.81 278.72L1042.51 303.72L999.21 278.72L999.21 228.72zM999.21 278.72L1042.51 303.72L1042.51 353.72L999.21 378.72L955.9 353.72L955.9 303.72zM999.21 428.72L1042.51 453.72L1042.51 503.72L999.21 528.72L955.9 503.72L955.9 453.72zM1085.81 -21.28L1129.11 3.72L1129.11 53.72L1085.81 78.72L1042.51 53.72L1042.51 3.72zM1085.81 128.72L1129.11 153.72L1129.11 203.72L1085.81 228.72L1042.51 203.72L1042.51 153.72zM1129.11 203.72L1172.41 228.72L1172.41 278.72L1129.11 303.72L1085.81 278.72L1085.81 228.72zM1129.11 353.72L1172.41 378.72L1172.41 428.72L1129.11 453.72L1085.81 428.72L1085.81 378.72zM1085.81 428.72L1129.11 453.72L1129.11 503.72L1085.81 528.72L1042.51 503.72L1042.51 453.72zM1172.41 -21.28L1215.72 3.72L1215.72 53.72L1172.41 78.72L1129.11 53.72L1129.11 3.72zM1215.72 203.72L1259.02 228.72L1259.02 278.72L1215.72 303.72L1172.41 278.72L1172.41 228.72zM1259.02 -21.28L1302.32 3.72L1302.32 53.72L1259.02 78.72L1215.72 53.72L1215.72 3.72zM1259.02 128.72L1302.32 153.72L1302.32 203.72L1259.02 228.72L1215.72 203.72L1215.72 153.72zM1302.32 203.72L1345.63 228.72L1345.63 278.72L1302.32 303.72L1259.02 278.72L1259.02 228.72zM1388.93 203.72L1432.23 228.72L1432.23 278.72L1388.93 303.72L1345.63 278.72L1345.63 228.72zM1388.93 353.72L1432.23 378.72L1432.23 428.72L1388.93 453.72L1345.63 428.72L1345.63 378.72zM1388.93 503.72L1432.23 528.72L1432.23 578.72L1388.93 603.72L1345.63 578.72L1345.63 528.72zM1432.23 -21.28L1475.53 3.72L1475.53 53.72L1432.23 78.72L1388.93 53.72L1388.93 3.72zM1475.53 203.72L1518.84 228.72L1518.84 278.72L1475.53 303.72L1432.23 278.72L1432.23 228.72zM1432.23 428.72L1475.53 453.72L1475.53 503.72L1432.23 528.72L1388.93 503.72L1388.93 453.72z" stroke="rgba(6, 80, 156, 0.93)" stroke-width="2"></path></g><defs><mask id="SvgjsMask1000"><rect width="1440" height="560" fill="#ffffff"></rect></mask></defs></svg>